<?xml version="1.0" encoding="utf-8"?>
<!-- Generator: Adobe Illustrator 25.2.0, SVG Export Plug-In . SVG Version: 6.00 Build 0)  -->
<svg version="1.1" id="Layer_1" xmlns="http://www.w3.org/2000/svg" xmlns:xlink="http://www.w3.org/1999/xlink" x="0px" y="0px"
	 viewBox="0 0 665 573" style="enable-background:new 0 0 665 573;" xml:space="preserve">
<style type="text/css">
	.st0{fill:#FFB8D9;}
	.st1{fill:#2C3141;}
	.st2{fill:#CDD0E1;}
	.st3{fill:#3B66FF;}
	.st4{fill:#263056;}
	.st5{fill:#FFFFFF;}
	.st6{opacity:0.1;enable-background:new    ;}
	.st7{fill:#E6EBEC;}
	.st8{fill:#E6E6E6;}
</style>
<g id="Page-1">
	<g id="Desktop-HD-Copy" transform="translate(-683.000000, -379.000000)">
		<g id="mobile" transform="translate(683.000000, 379.000000)">
			<path id="Path" class="st0" d="M42,376c0,0,10.8,16.8,7,21.3c-3.9,4.5,29,4.7,29,4.7s-4.9-24.4-3.5-30L42,376z"/>
			<circle id="Oval" class="st1" cx="59.5" cy="347.5" r="33.5"/>
			<polygon id="Path_1_" class="st0" points="138,530 138,550 158,545.8 156.3,531.7 			"/>
			<path id="Path_2_" class="st0" d="M208.5,532l55.5,9.2L249.9,562c0,0-38.9-13.3-48.9-13.3S208.5,532,208.5,532z"/>
			<path id="Path_3_" class="st2" d="M81.9,493.5c0,0,41.4-47.9,54.6-45.4c13.2,2.5,19,17.3,19,17.3l7.4,73.5c0,0-26.5,2.5-26.5,0
				c0-2.5-5-55.3-5-55.3S92.7,569.4,72,512.5L81.9,493.5z"/>
			<path id="Path_4_" class="st2" d="M16,526.3c0,0,0.8,43,25.6,45.5s52-18.4,52-18.4l44.6-21.2c0,0,52.8,27.8,68.5,20.4
				c0,0,16.5-17.2,5.8-22.2c-10.7-4.9-0.8,0-0.8,0L148,497.6c0,0-12.4-3.3-33.8,5.7c-21.5,9-50.3,13.1-50.3,13.1L16,526.3z"/>
			<circle id="Oval_1_" class="st0" cx="57" cy="360" r="25"/>
			<path id="Path_5_" class="st3" d="M93.1,429.3l-1.7,34.9c0,0,0.8,45.7-6.7,49.1c-3.8,1.7-11.5,5.1-18.5,8.7
				c-5.3,2.8-10.3,5.7-13.1,8.2c-0.7,0.6-1.4,1.4-1.9,2.2c-3.3,5.8-25.1,5-30.1,0.8c-5-4.2-1.7,5-5.9,6.7
				c-4.1,1.6-9.7-11.6-6.2-31.3c0.1-0.7,0.2-1.3,0.4-2c3.8-19.1-2.2-64.8-1.3-82.5c0.1-1.3,0.2-2.7,0.4-4
				c2.5-13.3,34.6-40.4,40.5-28.8c7.4,14.2,24.3,1.2,27.3-5.2c16.7-0.8,22.6,19.1,22.6,19.1L93.1,429.3z"/>
			<path id="Path_6_" class="st1" d="M159.2,542c0,0-13.2,5-17.3,4.2s-8.2,2.5-8.2,7.5s-4.9,16.8,2.5,17.6s37.9-0.8,44.5,1.7
				c0,0,29.7,0.8,27.2-11.7c-2.5-12.6-14.8-11.7-14.8-11.7S159.2,547.9,159.2,542z"/>
			<path id="Path_7_" class="st1" d="M255.9,545c0,0,1.7-5,4.1-5s22.4,3.3,24.9,2.5c2.5-0.8,31.5-2.5,26.5,11.7
				c-5,14.2-21.6,15.8-21.6,15.8s-29.9-3.3-34-2.5c-4.1,0.8-19.1,0-16.6-4.2C241.8,559.2,257.5,551.7,255.9,545z"/>
			<path id="Path_8_" class="st4" d="M181.4,425.9l4.6,18.9c0.1,0.2,0,0.4,0,0.6l-20.8,64.8c-0.2,0.5-0.7,0.9-1.2,0.8s-1-0.5-1.1-1
				l-2.9-25.2c0-0.2,0-0.3,0.1-0.5l19.1-58.4c0.2-0.5,0.6-0.8,1.2-0.8S181.3,425.4,181.4,425.9L181.4,425.9z"/>
			<polygon id="Path_9_" class="st5" points="179.7,428 184,444.1 165.3,503 161,484.8 			"/>
			<path id="Path_10_" class="st4" d="M88.1,515.2c0.7,2.1,72.4-0.7,73.1-1.4c0.6-0.9,1.1-1.8,1.5-2.8c0.7-1.4,1.3-2.8,1.3-2.8
				l-2.8-22.7l-71-2.5c0,0-1.8,19.2-2.1,28C88,512.4,88,513.8,88.1,515.2L88.1,515.2z"/>
			<polygon id="Path_11_" class="st6" points="152.6,488 154,507 123,507 123,488 			"/>
			<polygon id="Path_12_" class="st6" points="111.8,495 112,495 111.1,503 94,503 94,495 			"/>
			<path id="Path_13_" class="st6" d="M88.1,515.2c0.7,2.1,72.6-0.7,73.3-1.4c0.6-0.9,1.1-1.8,1.5-2.8H88.1
				C88,512.4,88,513.8,88.1,515.2L88.1,515.2z"/>
			<circle id="Oval_2_" class="st1" cx="64.5" cy="312.5" r="9.5"/>
			<path id="Path_14_" class="st1" d="M61.9,322c0,0-9.6,15.8-31.9,21.8S29.8,383,29.8,383s-8-12.1,3.6-24.9S63.6,336.5,61.9,322z"
				/>
			<path id="Path_15_" class="st6" d="M66,521.9c-2.1,3.9-4.5,7.9-4.9,9.5c-0.3,1.1-3.3,0.5-8.1-1.3c-9.6-3.6-26.3-11.9-41.9-20.2
				c-0.7-0.4-1.4-0.8-2-1.3c0.1-0.7,0.2-1.3,0.4-2c3.8-19-2.2-64.6-1.3-82.2l7.1-2.4l14.2,13.3v56.4c0,0,36.7,19.9,39.2,21.6
				C69.8,514.1,68.1,517.9,66,521.9z"/>
			<path id="Path_16_" class="st0" d="M96.3,475.3l22.6,11.8c0,0,13.4-14.3,21.8-3.4c8.4,10.9-24.3,14.3-24.3,14.3
				s-28.5-6.7-29.3-16C86.2,472.8,96.3,475.3,96.3,475.3z"/>
			<path id="Path_17_" class="st0" d="M58.3,506.6l13.5,3.3c0,0,15.1-18,31.1-11.5s-20.2,19.7-20.2,19.7s-19.3,9.8-26.9,1.6
				S58.3,506.6,58.3,506.6z"/>
			<path id="Path_18_" class="st3" d="M87.8,396c0.9,0.8,10.2,7.5,10.2,7.5s2.6,31.8-0.9,38.4c-3.4,6.7-6,6.7-3.4,10
				c2.6,3.3,6,0.8,2.6,6.7s-6.8,5-4.3,7.5c2.6,2.5,1.7,3.3,1.7,3.3l10.2,8.4c0,0-6.3,9.8-14.2,9.1c-7.9-0.7-14.8-38.3-14.8-38.3
				L87.8,396z"/>
			<path id="Path_19_" class="st3" d="M15.4,417l-7.5,2.5c0,0-19.9,73,3.3,85.4c23.3,12.4,49,24.9,49.8,21.6
				c0.8-3.3,10-16.6,7.5-18.2c-2.5-1.7-39-21.6-39-21.6v-56.4L15.4,417z"/>
			<polygon id="Path_20_" class="st6" points="26.7,447 25,487.1 69,508 28.3,487.1 			"/>
			<path id="Path_21_" class="st4" d="M665,132.2v64.9c0,1.2-1,2.3-2.3,2.3h-1.6v338.3c0,19.5-15.8,35.3-35.2,35.3H415
				c-9.3,0-18.3-3.7-24.9-10.3c-6.6-6.6-10.3-15.6-10.3-25V211.3h-1.2c-0.9,0-1.6-0.7-1.6-1.6v-37c0-0.4,0.2-0.8,0.5-1.1
				c0.3-0.3,0.7-0.5,1.1-0.5h1.2v-13.9h-1.2c-0.9,0-1.7-0.8-1.7-1.7v-36.5c0-0.9,0.7-1.7,1.7-1.7h1.2v-19h-1.2c-0.4,0-0.8-0.2-1-0.4
				c-0.3-0.3-0.4-0.7-0.4-1V77.1c0-0.8,0.7-1.5,1.5-1.5h1.2V35.3C379.8,15.8,395.6,0,415,0h210.9c19.4,0,35.2,15.8,35.2,35.3V130
				h1.6C664,130,665,131,665,132.2z"/>
			<path id="Rectangle" class="st7" d="M496.5,18h33.9c1.4,0,2.5,1.1,2.5,2.5v2.9c0,1.4-1.1,2.5-2.5,2.5h-33.9
				c-1.4,0-2.5-1.1-2.5-2.5v-2.9C494,19.1,495.1,18,496.5,18z"/>
			<circle id="Oval_3_" class="st7" cx="543" cy="23" r="5"/>
			<path id="Path_22_" class="st5" d="M644,42.4v498.2c0,12.4-10,22.4-22.4,22.4H419.4c-5.9,0-11.6-2.3-15.8-6.5s-6.6-9.9-6.5-15.8
				V42.4c0-5.9,2.4-11.6,6.6-15.8s9.9-6.6,15.8-6.6h30.3v3.9c0,10.2,8.3,18.4,18.4,18.4h102.9c10.2,0,18.4-8.3,18.4-18.4V20h32.3
				c5.9,0,11.6,2.4,15.8,6.6C641.6,30.8,644,36.4,644,42.4z"/>
			<rect id="Rectangle_1_" x="418" y="348" class="st8" width="206" height="26"/>
			<rect id="Rectangle_2_" x="418" y="396" class="st8" width="206" height="26"/>
			<rect id="Rectangle_3_" x="418" y="443" class="st8" width="206" height="26"/>
			<circle id="Oval_4_" class="st3" cx="601.5" cy="89.5" r="19.5"/>
			<rect id="Rectangle_4_" x="417" y="156" class="st8" width="206" height="136"/>
			<path id="Path_23_" class="st4" d="M499.8,232.2c6,22.1,26.6,35.8,26.6,35.8s10.8-22.1,4.8-44.2c-6-22.1-26.6-35.8-26.6-35.8
				S493.8,210.1,499.8,232.2z"/>
			<path id="Path_24_" class="st3" d="M508.4,228.4C525,244.4,527,269,527,269s-24.8-1.3-41.4-17.4S467,211,467,211
				S491.8,212.3,508.4,228.4z"/>
			<path id="Path_25_" class="st4" d="M554.2,232.2c-6,22.1-26.6,35.8-26.6,35.8s-10.8-22.1-4.8-44.2c6-22.1,26.6-35.8,26.6-35.8
				S560.2,210.1,554.2,232.2z"/>
			<path id="Path_26_" class="st3" d="M545.6,228.4C529,244.4,527,269,527,269s24.8-1.3,41.4-17.4S587,211,587,211
				S562.2,212.3,545.6,228.4z"/>
		</g>
	</g>
</g>
</svg>
